<svg width="62.000000" height="62.000000" viewBox="0 0 62 62" fill="none" xmlns="http://www.w3.org/2000/svg" xmlns:xlink="http://www.w3.org/1999/xlink">
	<desc>
			Created with Pixso.
	</desc>
	<defs/>
	<path id="Vector" d="M20.15 35.65L20.15 24.8" stroke="#F5F5F5" stroke-opacity="1.000000" stroke-width="3.000000" stroke-linejoin="round" stroke-linecap="round"/>
	<path id="Vector" d="M20.53 46.5C17.75 46.5 15.5 44.24 15.5 41.46C15.5 38.68 17.75 36.42 20.53 36.42C23.31 36.42 25.57 38.68 25.57 41.46C25.57 44.24 23.31 46.5 20.53 46.5Z" stroke="#F5F5F5" stroke-opacity="1.000000" stroke-width="3.000000" stroke-linejoin="round"/>
	<path id="Vector" d="M20.15 24.8C17.58 24.8 15.5 22.71 15.5 20.15C15.5 17.58 17.58 15.5 20.15 15.5C22.71 15.5 24.79 17.58 24.79 20.15C24.79 22.71 22.71 24.8 20.15 24.8Z" stroke="#F5F5F5" stroke-opacity="1.000000" stroke-width="3.000000" stroke-linejoin="round"/>
	<path id="Vector" d="M41.85 24.8C39.28 24.8 37.2 22.71 37.2 20.15C37.2 17.58 39.28 15.5 41.85 15.5C44.41 15.5 46.5 17.58 46.5 20.15C46.5 22.71 44.41 24.8 41.85 24.8Z" stroke="#F5F5F5" stroke-opacity="1.000000" stroke-width="3.000000" stroke-linejoin="round"/>
	<path id="Vector" d="M20.35 35.64C21.05 32.93 23.53 30.92 26.45 30.94L31.77 30.97C35.83 31 39.29 28.39 40.55 24.74" stroke="#F5F5F5" stroke-opacity="1.000000" stroke-width="3.000000" stroke-linejoin="round" stroke-linecap="round"/>
	<path id="Vector" d="M38.75 5.16C51.66 5.16 56.83 10.33 56.83 23.25L56.83 38.75C56.83 51.66 51.66 56.83 38.75 56.83L23.25 56.83C10.33 56.83 5.16 51.66 5.16 38.75L5.16 23.25C5.16 10.33 10.33 5.16 23.25 5.16L38.75 5.16Z" stroke="#F5F5F5" stroke-opacity="1.000000" stroke-width="3.000000" stroke-linejoin="round"/>
	<g opacity="0.000000"/>
</svg>
