<svg width="54.995026" height="54.994995" viewBox="0 0 54.995 54.995" fill="none" xmlns="http://www.w3.org/2000/svg" xmlns:xlink="http://www.w3.org/1999/xlink">
	<desc>
			Created with Pixso.
	</desc>
	<defs/>
	<path id="Vector" d="M13.29 15.29L5.17 15.29C2.92 15.29 0.99 16.94 0.63 19.19C-0.22 24.69 -0.22 30.3 0.63 35.79C0.99 38.05 2.92 39.7 5.17 39.7L9.79 39.7C10.56 39.7 11.16 39.09 11.16 38.32L11.16 33.6C11.16 27.96 15.75 23.37 21.39 23.37L33.6 23.37C34.7 23.37 35.57 22.49 35.57 21.39L35.57 12.54C35.57 11.77 36.18 11.16 36.95 11.16L38.32 11.16C39.09 11.16 39.7 10.56 39.7 9.79L39.7 5.17C39.7 2.92 38.05 0.99 35.79 0.63C30.3 -0.22 24.69 -0.22 19.19 0.63C16.94 0.99 15.29 2.92 15.29 5.17L15.29 15.29L13.29 15.29ZM19.5 2.61L19.5 2.61Q23.57 1.98 27.64 1.99Q31.56 2 35.48 2.61Q36.61 2.79 37.16 3.45Q37.7 4.09 37.7 5.17L37.7 9.16L36.95 9.16Q35.26 9.16 34.42 10.01Q33.57 10.85 33.57 12.54L33.57 21.37L21.39 21.37Q18.89 21.37 16.75 22.25Q14.56 23.14 12.75 24.95Q10.94 26.77 10.04 28.95Q9.16 31.09 9.16 33.6L9.16 37.7L5.17 37.7Q4.08 37.7 3.45 37.16Q2.79 36.61 2.61 35.49Q1.98 31.42 1.99 27.35Q2 23.43 2.61 19.5Q2.79 18.37 3.45 17.82Q4.09 17.29 5.17 17.29L17.29 17.29L17.29 5.17Q17.29 4.09 17.82 3.45Q18.37 2.79 19.5 2.61Q19.5 2.61 19.5 2.61ZM18.91 6.35Q18.7 6.96 18.7 7.64Q18.7 8.3 18.89 8.89Q19.19 9.81 19.96 10.58Q20.74 11.35 21.66 11.65Q22.25 11.84 22.9 11.84Q23.58 11.84 24.19 11.64Q25.1 11.34 25.86 10.59Q26.63 9.82 26.93 8.9Q27.13 8.3 27.13 7.64Q27.13 6.71 26.78 5.94Q26.46 5.21 25.83 4.61Q25.25 4.04 24.55 3.74Q23.79 3.42 22.9 3.42Q22.24 3.42 21.65 3.61Q20.72 3.92 19.96 4.69Q19.21 5.45 18.91 6.35ZM24.44 6.05C24.06 5.66 23.45 5.42 22.9 5.42C21.77 5.42 20.7 6.49 20.7 7.64C20.7 8.77 21.77 9.84 22.9 9.84C24.06 9.84 25.13 8.77 25.13 7.64C25.13 7.07 24.85 6.43 24.44 6.05Z" fill="#FFFFFF" fill-opacity="1.000000" fill-rule="evenodd"/>
	<path id="Vector" d="M41.7 39.7L49.81 39.7C52.07 39.7 53.99 38.05 54.35 35.79C55.2 30.3 55.2 24.69 54.35 19.19C53.99 16.94 52.07 15.29 49.81 15.29L41.07 15.29C40.3 15.29 39.7 15.89 39.7 16.66L39.7 21.39C39.7 24.74 36.98 27.49 33.6 27.49L21.39 27.49C18.01 27.49 15.29 30.21 15.29 33.6L15.29 49.81C15.29 52.07 16.94 53.99 19.19 54.35C24.69 55.2 30.3 55.2 35.79 54.35C38.05 53.99 39.7 52.07 39.7 49.81L39.7 39.7L41.7 39.7ZM41.7 17.29L49.81 17.29Q50.9 17.29 51.54 17.82Q52.2 18.37 52.37 19.5Q53.01 23.57 52.99 27.64Q52.98 31.56 52.38 35.48Q52.2 36.61 51.54 37.16Q50.9 37.7 49.81 37.7L37.7 37.7L37.7 49.81Q37.7 50.9 37.16 51.54Q36.61 52.2 35.49 52.37Q31.42 53.01 27.35 52.99Q23.43 52.98 19.5 52.38Q18.37 52.2 17.82 51.54Q17.29 50.9 17.29 49.81L17.29 33.6Q17.29 31.54 18.31 30.52Q19.34 29.49 21.39 29.49L33.6 29.49Q35.27 29.49 36.71 28.9Q38.14 28.3 39.33 27.11Q40.52 25.92 41.11 24.48Q41.7 23.05 41.7 21.39L41.7 17.29ZM28.07 46.04Q27.86 46.65 27.86 47.34Q27.86 48.01 28.05 48.61Q28.36 49.54 29.14 50.31Q29.92 51.08 30.85 51.38Q31.44 51.57 32.08 51.57Q32.74 51.57 33.33 51.38Q34.26 51.07 35.03 50.29Q35.76 49.56 36.07 48.68Q36.29 48.05 36.31 47.36L36.31 47.34L36.31 47.31Q36.31 46.39 35.97 45.62Q35.64 44.86 34.98 44.25Q34.37 43.68 33.64 43.4Q32.92 43.11 32.08 43.11Q31.4 43.11 30.78 43.32Q29.88 43.63 29.12 44.38Q28.37 45.13 28.07 46.04ZM32.08 49.57C30.96 49.57 29.86 48.5 29.86 47.34C29.86 46.19 30.93 45.11 32.08 45.11C32.61 45.11 33.24 45.36 33.62 45.72C34.04 46.1 34.31 46.76 34.31 47.31C34.28 48.5 33.21 49.57 32.08 49.57Z" fill="#FFFFFF" fill-opacity="1.000000" fill-rule="evenodd"/>
</svg>
