<?xml version="1.0" standalone="no"?>
<!DOCTYPE svg PUBLIC "-//W3C//DTD SVG 20010904//EN"
 "http://www.w3.org/TR/2001/REC-SVG-20010904/DTD/svg10.dtd">
<svg version="1.0" xmlns="http://www.w3.org/2000/svg"
 width="auto" height="auto" viewBox="12 10 466.000000 163.000000"
 preserveAspectRatio="xMidYMid meet">

<g transform="translate(0.000000,185.000000) scale(0.101000,-0.101000)"
fill="#7562e0" stroke="none">
<path d="M483 1715 c-35 -8 -87 -26 -115 -42 -68 -36 -155 -123 -191 -190 -51
-95 -57 -152 -57 -558 0 -403 6 -458 55 -556 58 -114 193 -214 324 -239 70
-13 781 -13 852 0 181 34 334 187 369 369 13 71 13 781 0 852 -25 131 -125
266 -239 324 -99 50 -152 55 -561 54 -276 0 -391 -4 -437 -14z m580 -413 c9
-8 17 -22 17 -30 0 -8 -41 -170 -92 -361 -93 -350 -109 -391 -151 -391 -28 0
-60 36 -59 66 1 28 178 699 189 717 8 13 46 25 63 19 8 -3 23 -12 33 -20z
m-343 -152 c34 -34 25 -58 -59 -144 l-79 -81 79 -82 c55 -57 79 -90 79 -107 0
-32 -45 -69 -74 -60 -12 3 -69 54 -128 113 -86 86 -108 113 -108 136 0 22 22
50 108 137 117 116 142 128 182 88z m592 -88 c142 -142 142 -134 1 -274 -60
-58 -118 -109 -130 -113 -26 -7 -73 32 -73 61 0 9 37 54 82 100 l82 84 -82 84
c-45 46 -82 91 -82 100 0 24 45 66 72 66 15 0 57 -35 130 -108z"/>
<path d="M3312 1303 l3 -248 30 0 c29 0 30 1 33 56 2 42 8 62 23 75 18 16 22
17 29 4 5 -8 29 -43 54 -77 39 -53 51 -63 76 -63 16 0 31 4 34 8 3 5 -22 46
-55 93 -34 46 -63 90 -66 96 -3 7 23 43 57 80 l62 68 -38 3 c-37 3 -43 0 -99
-62 -33 -37 -63 -66 -67 -66 -5 0 -8 63 -8 140 l0 140 -35 0 -35 0 2 -247z"/>
<path d="M3134 1526 c-13 -33 0 -51 36 -51 32 0 35 2 35 30 0 27 -4 30 -33 33
-22 2 -34 -2 -38 -12z"/>
<path d="M2194 1400 c-30 -12 -64 -58 -64 -87 0 -61 43 -97 148 -123 67 -17
69 -65 4 -84 -24 -7 -40 -4 -70 12 -36 18 -42 19 -61 6 -29 -20 -27 -31 11
-54 100 -61 238 -15 238 79 0 56 -30 86 -114 114 -76 24 -98 45 -77 71 18 21
89 21 113 -1 16 -14 22 -14 43 -3 34 18 28 41 -15 62 -37 19 -120 23 -156 8z"/>
<path d="M2541 1393 c-94 -47 -97 -278 -3 -327 44 -23 95 -29 143 -16 73 20
98 53 58 78 -17 11 -25 11 -44 -2 -25 -16 -80 -21 -110 -10 -18 7 -45 54 -45
79 0 13 18 15 115 15 l115 0 0 50 c0 58 -18 99 -56 129 -34 26 -123 28 -173 4z
m145 -68 c31 -47 17 -60 -66 -60 -69 0 -75 1 -72 20 8 46 30 65 77 65 36 0 48
-5 61 -25z"/>
<path d="M2967 1385 c-36 -25 -37 -25 -37 -5 0 16 -6 20 -35 20 l-35 0 2 -172
3 -173 30 0 30 0 3 117 c3 116 3 117 33 142 19 17 43 26 64 26 32 0 44 16 45
58 0 21 -63 13 -103 -13z"/>
<path d="M3142 1228 l3 -173 30 0 30 0 3 173 2 172 -35 0 -35 0 2 -172z"/>
<path d="M2152 683 l3 -248 30 0 c29 0 30 1 35 60 9 105 23 109 81 23 23 -35
49 -69 57 -76 16 -12 64 -17 74 -6 4 3 -25 49 -63 101 l-70 96 23 26 c12 14
43 47 67 74 l45 47 -44 0 c-43 0 -48 -3 -100 -64 -30 -36 -58 -65 -62 -65 -5
-1 -8 62 -8 139 l0 140 -35 0 -35 0 2 -247z"/>
<path d="M3828 833 c-3 -41 -6 -48 -25 -51 -33 -5 -32 -48 2 -56 25 -6 25 -7
25 -122 0 -63 5 -124 11 -136 25 -46 159 -63 159 -20 0 30 -16 44 -42 37 -47
-12 -58 14 -58 130 0 110 2 115 56 115 19 0 24 5 24 24 0 21 -5 25 -37 28 -38
3 -38 3 -41 51 -3 46 -4 47 -37 47 -33 0 -34 -1 -37 -47z"/>
<path d="M2545 781 c-11 -5 -28 -18 -38 -29 -18 -20 -18 -21 7 -37 23 -15 27
-15 48 -1 27 19 97 21 122 3 11 -8 17 -23 14 -37 -3 -22 -10 -26 -76 -35 -83
-13 -123 -37 -136 -84 -29 -100 77 -170 178 -116 34 19 36 19 49 1 7 -10 22
-17 33 -14 18 3 19 14 22 150 2 142 2 147 -22 175 -22 26 -30 28 -103 30 -43
2 -87 -1 -98 -6z m155 -220 c0 -36 -3 -41 -44 -60 -57 -28 -96 -17 -96 28 0
35 19 52 68 62 70 13 72 13 72 -30z"/>
<path d="M2992 770 c-39 -24 -42 -24 -42 -5 0 10 -11 15 -35 15 l-35 0 2 -172
3 -173 30 0 30 0 5 125 5 124 34 23 c76 51 90 31 93 -138 l3 -134 35 0 35 0 5
125 5 124 34 23 c37 25 49 27 71 13 12 -7 16 -39 20 -147 l5 -138 30 0 30 0 0
158 c0 155 -1 159 -24 178 -35 28 -96 25 -143 -7 l-38 -27 -21 27 c-26 33 -88
36 -137 6z"/>
<path d="M4113 770 c-48 -29 -67 -73 -67 -160 -1 -58 4 -83 19 -110 57 -96
218 -101 275 -8 49 82 28 230 -39 275 -45 30 -141 32 -188 3z m148 -59 c22
-17 24 -27 24 -101 0 -74 -2 -84 -24 -101 -14 -11 -39 -19 -61 -19 -58 0 -80
33 -80 122 0 60 3 72 25 93 30 31 83 33 116 6z"/>
<path d="M3430 771 c0 -6 27 -78 60 -161 51 -129 58 -155 49 -178 -17 -45 -39
-62 -80 -62 -33 0 -40 -4 -45 -25 -8 -32 -5 -34 38 -42 23 -3 48 1 72 12 44
21 57 45 151 275 37 91 69 171 72 178 4 10 -4 13 -33 10 l-39 -3 -38 -100
c-21 -55 -42 -104 -46 -108 -4 -4 -27 42 -50 103 l-43 110 -34 0 c-19 0 -34
-4 -34 -9z"/>
<path d="M4444 688 c19 -51 46 -128 61 -171 29 -82 40 -93 78 -84 18 5 31 33
80 169 31 90 57 166 57 171 0 4 -15 7 -33 7 l-33 0 -37 -115 c-21 -63 -41
-115 -45 -115 -4 0 -25 52 -47 115 l-40 115 -37 0 -37 0 33 -92z"/>
</g>
</svg>
