<svg width="56.000000" height="56.000000" viewBox="0 0 56 56" fill="none" xmlns="http://www.w3.org/2000/svg" xmlns:xlink="http://www.w3.org/1999/xlink">
	<desc>
			Created with Pixso.
	</desc>
	<defs/>
	<rect id="vuesax/ruler&amp;pen" rx="0.000000" width="55.000000" height="55.000000" transform="translate(0.500000 0.500000)" fill="#FFFFFF" fill-opacity="0"/>
	<path id="Vector" d="M43.09 53.08L33.76 53.08C28.11 53.08 25.01 49.98 25.01 44.33L25.01 11.66C25.01 6.02 28.11 2.91 33.76 2.91L43.09 2.91C48.74 2.91 51.84 6.02 51.84 11.66L51.84 44.33C51.84 49.98 48.72 53.08 43.09 53.08ZM33.76 6.41C30.07 6.41 28.51 7.97 28.51 11.66L28.51 44.33C28.51 48.02 30.07 49.58 33.76 49.58L43.09 49.58C46.78 49.58 48.34 48.02 48.34 44.33L48.34 11.66C48.34 7.97 46.78 6.41 43.09 6.41L33.76 6.41Z" fill="#FFFFFF" fill-opacity="1.000000" fill-rule="evenodd"/>
	<path id="Vector" d="M26.76 15.75L38.43 15.75C39.38 15.75 40.18 14.95 40.18 14C40.18 13.04 39.38 12.25 38.43 12.25L26.76 12.25C25.8 12.25 25.01 13.04 25.01 14C25.01 14.95 25.8 15.75 26.76 15.75Z" fill="#FFFFFF" fill-opacity="1.000000" fill-rule="evenodd"/>
	<path id="Vector" d="M26.76 43.75L36.09 43.75C37.05 43.75 37.84 42.95 37.84 42C37.84 41.04 37.05 40.25 36.09 40.25L26.76 40.25C25.8 40.25 25.01 41.04 25.01 42C25.01 42.95 25.8 43.75 26.76 43.75Z" fill="#FFFFFF" fill-opacity="1.000000" fill-rule="evenodd"/>
	<path id="Vector" d="M38.43 34.41L26.74 34.3C25.78 34.3 24.99 33.5 25.01 32.52C25.01 31.57 25.8 30.8 26.76 30.8L26.78 30.8L38.45 30.91C39.41 30.91 40.2 31.71 40.18 32.69C40.15 33.64 39.38 34.41 38.43 34.41ZM38.4 33.91Q38.41 33.91 38.42 33.91L38.4 33.91Z" fill="#FFFFFF" fill-opacity="1.000000" fill-rule="evenodd"/>
	<path id="Vector" d="M26.76 25.08L33.76 25.08C34.72 25.08 35.51 24.29 35.51 23.33C35.51 22.37 34.72 21.58 33.76 21.58L26.76 21.58C25.8 21.58 25.01 22.37 25.01 23.33C25.01 24.29 25.8 25.08 26.76 25.08Z" fill="#FFFFFF" fill-opacity="1.000000" fill-rule="evenodd"/>
	<path id="Vector" d="M12.81 53.01C10.68 53.01 8.67 51.7 7.3 49.41L5.38 46.24C4.68 45.08 4.15 43.16 4.15 41.81L4.15 11.54C4.15 6.78 8.02 2.91 12.78 2.91C17.54 2.91 21.42 6.78 21.42 11.54L21.42 41.78C21.42 43.14 20.88 45.05 20.18 46.22L18.27 49.39C16.94 51.7 14.93 53.01 12.81 53.01ZM12.81 6.41C9.98 6.41 7.67 8.72 7.67 11.54L7.67 41.78C7.67 42.51 8.02 43.79 8.39 44.42L10.31 47.6C11.03 48.81 11.94 49.49 12.81 49.49C13.67 49.49 14.58 48.78 15.3 47.6L17.21 44.42C17.59 43.79 17.94 42.51 17.94 41.78L17.94 11.54C17.94 8.72 15.63 6.41 12.81 6.41Z" fill="#FFFFFF" fill-opacity="1.000000" fill-rule="evenodd"/>
	<path id="Vector" d="M5.9 18.08L19.69 18.08C20.65 18.08 21.44 17.29 21.44 16.33C21.44 15.37 20.65 14.58 19.69 14.58L5.9 14.58C4.94 14.58 4.15 15.37 4.15 16.33C4.15 17.29 4.94 18.08 5.9 18.08Z" fill="#FFFFFF" fill-opacity="1.000000" fill-rule="evenodd"/>
	<g opacity="0.000000">
		<path id="Vector" d="M56 0L0 0L0 56L56 56L56 0ZM3 53L3 3L53 3L53 53L3 53Z" fill="#FFFFFF" fill-opacity="1.000000" fill-rule="evenodd"/>
	</g>
</svg>
