<svg width="32.000000" height="32.000000" viewBox="0 0 32 32" fill="none" xmlns="http://www.w3.org/2000/svg" xmlns:xlink="http://www.w3.org/1999/xlink">
	<desc>
			Created with Pixso.
	</desc>
	<defs/>
	<rect id="vuesax/bold/sms" rx="0.000000" width="31.000000" height="31.000000" transform="translate(0.500000 0.500000)" fill="#FFFFFF" fill-opacity="0"/>
	<g opacity="0.000000"/>
	<path id="Vector" d="M22.66 4.66L9.33 4.66C5.33 4.66 2.66 6.66 2.66 11.33L2.66 20.66C2.66 25.33 5.33 27.33 9.33 27.33L22.66 27.33C26.66 27.33 29.33 25.33 29.33 20.66L29.33 11.33C29.33 6.66 26.66 4.66 22.66 4.66ZM23.29 12.78L19.12 16.12C18.24 16.82 17.12 17.17 16 17.17C14.88 17.17 13.74 16.82 12.88 16.12L8.7 12.78C8.28 12.44 8.21 11.8 8.54 11.37C8.89 10.94 9.51 10.86 9.94 11.21L14.12 14.54C15.13 15.36 16.85 15.36 17.86 14.54L22.04 11.21C22.46 10.86 23.1 10.93 23.44 11.37C23.78 11.8 23.72 12.44 23.29 12.78Z" fill="#7562E0" fill-opacity="1.000000" fill-rule="nonzero"/>
</svg>
