<svg width="62.000000" height="62.000000" viewBox="0 0 62 62" fill="none" xmlns="http://www.w3.org/2000/svg" xmlns:xlink="http://www.w3.org/1999/xlink">
	<desc>
			Created with Pixso.
	</desc>
	<defs/>
	<rect id="vuesax/bold/android" rx="0.000000" width="61.000000" height="61.000000" transform="translate(0.500000 0.500000)" fill="#FFFFFF" fill-opacity="0"/>
	<g opacity="0.580000"/>
	<path id="Vector" d="M26.41 50.5L26.41 56.25Q26.41 56.35 26.38 56.44Q26.33 56.56 26.24 56.66Q26.14 56.75 26.03 56.79Q25.93 56.83 25.83 56.83Q25.72 56.83 25.63 56.79Q25.51 56.75 25.42 56.66Q25.32 56.56 25.28 56.44Q25.25 56.35 25.25 56.25L25.25 50.5L26.41 50.5ZM28.41 50.5L28.41 56.25C28.41 57.67 27.25 58.83 25.83 58.83C24.41 58.83 23.25 57.67 23.25 56.25L23.25 48.5L28.41 48.5L28.41 50.5Z" fill="#FFFFFF" fill-opacity="1.000000" fill-rule="evenodd"/>
	<path id="Vector" d="M36.75 50.5L36.75 56.25Q36.75 56.35 36.71 56.44Q36.67 56.56 36.57 56.66Q36.48 56.75 36.36 56.79Q36.27 56.83 36.16 56.83Q36.06 56.83 35.96 56.79Q35.85 56.75 35.75 56.66Q35.66 56.56 35.61 56.44Q35.58 56.35 35.58 56.25L35.58 50.5L36.75 50.5ZM38.75 50.5L38.75 56.25C38.75 57.67 37.58 58.83 36.16 58.83C34.74 58.83 33.58 57.67 33.58 56.25L33.58 48.5L38.75 48.5L38.75 50.5Z" fill="#FFFFFF" fill-opacity="1.000000" fill-rule="evenodd"/>
	<path id="Vector" d="M43.91 41.33L43.91 28.41C43.91 25.57 41.59 23.25 38.75 23.25L23.25 23.25C20.4 23.25 18.08 25.57 18.08 28.41L18.08 41.33C18.08 44.17 20.4 46.5 23.25 46.5L38.75 46.5C41.59 46.5 43.91 44.17 43.91 41.33ZM41.91 28.41L41.91 41.33Q41.91 41.95 41.7 42.49Q41.46 43.08 40.98 43.56Q40.5 44.05 39.91 44.28Q39.37 44.5 38.75 44.5L23.25 44.5Q22.62 44.5 22.08 44.28Q21.49 44.05 21.01 43.56Q20.53 43.08 20.29 42.49Q20.08 41.95 20.08 41.33L20.08 28.41Q20.08 27.79 20.29 27.25Q20.53 26.66 21.01 26.18Q21.49 25.69 22.08 25.46Q22.62 25.25 23.25 25.25L38.75 25.25Q40.33 25.25 41.12 26.04Q41.91 26.83 41.91 28.41Z" fill="#FFFFFF" fill-opacity="1.000000" fill-rule="evenodd"/>
	<path id="Vector" d="M12.91 38.75L12.91 28.41C12.91 26.99 11.75 25.83 10.33 25.83C8.91 25.83 7.75 26.99 7.75 28.41L7.75 38.75C7.75 40.17 8.91 41.33 10.33 41.33C11.75 41.33 12.91 40.17 12.91 38.75ZM10.91 28.41L10.91 38.75Q10.91 38.85 10.88 38.94Q10.83 39.06 10.74 39.16Q10.64 39.25 10.53 39.29Q10.43 39.33 10.33 39.33Q10.22 39.33 10.13 39.29Q10.01 39.25 9.92 39.16Q9.82 39.06 9.78 38.94Q9.75 38.85 9.75 38.75L9.75 28.41Q9.75 28.31 9.78 28.21Q9.82 28.1 9.92 28Q10.01 27.91 10.13 27.86Q10.22 27.83 10.33 27.83Q10.43 27.83 10.53 27.86Q10.64 27.91 10.74 28Q10.83 28.1 10.88 28.21Q10.91 28.31 10.91 28.41Z" fill="#FFFFFF" fill-opacity="1.000000" fill-rule="evenodd"/>
	<path id="Vector" d="M54.25 38.75L54.25 28.41C54.25 26.99 53.08 25.83 51.66 25.83C50.24 25.83 49.08 26.99 49.08 28.41L49.08 38.75C49.08 40.17 50.24 41.33 51.66 41.33C53.08 41.33 54.25 40.17 54.25 38.75ZM52.25 28.41L52.25 38.75Q52.25 38.85 52.21 38.94Q52.17 39.06 52.07 39.16Q51.98 39.25 51.86 39.29Q51.77 39.33 51.66 39.33Q51.56 39.33 51.46 39.29Q51.35 39.25 51.25 39.16Q51.16 39.06 51.11 38.94Q51.08 38.85 51.08 38.75L51.08 28.41Q51.08 28.31 51.11 28.21Q51.16 28.1 51.25 28Q51.35 27.91 51.46 27.86Q51.56 27.83 51.66 27.83Q51.77 27.83 51.86 27.86Q51.98 27.91 52.07 28Q52.17 28.1 52.21 28.21Q52.25 28.31 52.25 28.41Z" fill="#FFFFFF" fill-opacity="1.000000" fill-rule="evenodd"/>
	<path id="Vector" d="M37.2 19.63L24.8 19.63C22.52 19.63 20.66 17.77 20.66 15.49C20.66 9.79 25.29 5.16 31 5.16C36.7 5.16 41.33 9.79 41.33 15.49C41.33 17.77 39.47 19.63 37.2 19.63ZM37.65 17.58Q37.43 17.63 37.2 17.63L24.8 17.63Q24.56 17.63 24.34 17.58Q24.15 17.54 23.97 17.46Q23.81 17.39 23.67 17.3Q23.47 17.18 23.29 17Q23.11 16.82 22.99 16.62Q22.9 16.48 22.83 16.32Q22.75 16.14 22.71 15.95Q22.66 15.73 22.66 15.49Q22.66 14.53 22.87 13.61Q23.03 12.92 23.32 12.25Q23.61 11.56 24.01 10.94Q24.48 10.22 25.1 9.6Q25.72 8.98 26.44 8.51Q27.06 8.11 27.75 7.82Q28.42 7.53 29.11 7.37Q30.03 7.16 31 7.16Q31.96 7.16 32.88 7.37Q33.57 7.53 34.24 7.82Q34.93 8.11 35.55 8.51Q36.27 8.98 36.89 9.6Q37.51 10.22 37.98 10.94Q38.38 11.56 38.67 12.25Q38.96 12.92 39.12 13.61Q39.33 14.53 39.33 15.49Q39.33 15.73 39.28 15.95Q39.24 16.14 39.16 16.32Q39.09 16.48 39 16.62Q38.88 16.82 38.7 17Q38.52 17.18 38.32 17.3Q38.18 17.39 38.02 17.46Q37.84 17.54 37.65 17.58Z" fill="#FFFFFF" fill-opacity="1.000000" fill-rule="evenodd"/>
	<g opacity="0.000000"/>
</svg>
