<svg width="52.000000" height="52.000000" viewBox="0 0 52 52" fill="none" xmlns="http://www.w3.org/2000/svg" xmlns:xlink="http://www.w3.org/1999/xlink">
	<desc>
			Created with Pixso.
	</desc>
	<defs/>
	<rect id="vuesax/broken/code" rx="0.000000" width="51.000000" height="51.000000" transform="translate(0.500000 0.500000)" fill="#FFFFFF" fill-opacity="0"/>
	<path id="Vector" d="M19.5 28.16C18.07 28.88 16.87 29.94 15.99 31.26C15.49 32.02 15.49 32.97 15.99 33.73C16.87 35.05 18.07 36.11 19.5 36.83" stroke="#FFFFFF" stroke-opacity="1.000000" stroke-width="3.000000" stroke-linejoin="round" stroke-linecap="round"/>
	<path id="Vector" d="M32.95 28.16C34.38 28.88 35.57 29.94 36.46 31.26C36.96 32.02 36.96 32.97 36.46 33.73C35.57 35.05 34.38 36.11 32.95 36.83" stroke="#FFFFFF" stroke-opacity="1.000000" stroke-width="3.000000" stroke-linejoin="round" stroke-linecap="round"/>
	<path id="Vector" d="M4.33 28.16L4.33 32.5C4.33 43.33 8.66 47.66 19.5 47.66L32.5 47.66C43.33 47.66 47.66 43.33 47.66 32.5L47.66 19.5C47.66 8.66 43.33 4.33 32.5 4.33L19.5 4.33C8.66 4.33 4.33 8.66 4.33 19.5" stroke="#FFFFFF" stroke-opacity="1.000000" stroke-width="3.000000" stroke-linejoin="round" stroke-linecap="round"/>
	<path id="Vector" d="M4.83 17.35L46.47 17.33" stroke="#FFFFFF" stroke-opacity="1.000000" stroke-width="3.000000" stroke-linejoin="round" stroke-linecap="round"/>
	<g opacity="0.000000">
		<path id="Vector" d="M0 0L52 0L52 52L0 52L0 0ZM3 49L3 3L49 3L49 49L3 49Z" fill="#FFFFFF" fill-opacity="1.000000" fill-rule="evenodd"/>
	</g>
</svg>
