<svg width="32.000000" height="32.000000" viewBox="0 0 32 32" fill="none" xmlns="http://www.w3.org/2000/svg" xmlns:xlink="http://www.w3.org/1999/xlink">
	<desc>
			Created with Pixso.
	</desc>
	<defs/>
	<rect id="vuesax/bold/facebook" rx="0.000000" width="31.000000" height="31.000000" transform="translate(0.500000 0.500000)" fill="#FFFFFF" fill-opacity="0"/>
	<g opacity="0.580000"/>
	<path id="Vector" d="M29.33 21.58C29.33 26.44 26.44 29.33 21.58 29.33L20 29.33C19.26 29.33 18.66 28.73 18.66 28L18.66 20.3C18.66 19.94 18.95 19.64 19.32 19.64L21.66 19.6C21.85 19.58 22.01 19.45 22.05 19.26L22.52 16.72C22.56 16.48 22.37 16.25 22.12 16.25L19.28 16.29C18.9 16.29 18.61 16 18.6 15.64L18.54 12.37C18.54 12.16 18.71 11.97 18.94 11.97L22.14 11.92C22.37 11.92 22.54 11.74 22.54 11.52L22.49 8.32C22.49 8.09 22.32 7.92 22.09 7.92L18.49 7.97C16.28 8.01 14.52 9.82 14.56 12.04L14.62 15.7C14.64 16.08 14.34 16.37 13.97 16.38L12.37 16.41C12.14 16.41 11.97 16.58 11.97 16.81L12.01 19.34C12.01 19.57 12.18 19.74 12.41 19.74L14.01 19.72C14.38 19.72 14.68 20.01 14.69 20.37L14.81 27.97C14.82 28.72 14.22 29.33 13.48 29.33L10.41 29.33C5.56 29.33 2.66 26.44 2.66 21.57L2.66 10.41C2.66 5.56 5.56 2.66 10.41 2.66L21.58 2.66C26.44 2.66 29.33 5.56 29.33 10.41L29.33 21.58Z" fill="#7562E0" fill-opacity="1.000000" fill-rule="nonzero"/>
	<g opacity="0.000000"/>
</svg>
