<svg width="32.000000" height="32.000000" viewBox="0 0 32 32" fill="none" xmlns="http://www.w3.org/2000/svg" xmlns:xlink="http://www.w3.org/1999/xlink">
	<desc>
			Created with Pixso.
	</desc>
	<defs/>
	<rect id="vuesax/bold/instagram" rx="0.000000" width="31.000000" height="31.000000" transform="translate(0.500000 0.500000)" fill="#FFFFFF" fill-opacity="0"/>
	<path id="Vector" d="M21.58 2.66L10.41 2.66C5.56 2.66 2.66 5.56 2.66 10.41L2.66 21.57C2.66 26.44 5.56 29.33 10.41 29.33L21.57 29.33C26.42 29.33 29.32 26.44 29.32 21.58L29.32 10.41C29.33 5.56 26.44 2.66 21.58 2.66ZM16 21.17C13.14 21.17 10.82 18.85 10.82 16C10.82 13.14 13.14 10.82 16 10.82C18.85 10.82 21.17 13.14 21.17 16C21.17 18.85 18.85 21.17 16 21.17ZM23.89 9.17C23.82 9.33 23.73 9.47 23.61 9.61C23.48 9.73 23.33 9.82 23.17 9.89C23.01 9.95 22.84 10 22.66 10C22.3 10 21.97 9.86 21.72 9.61C21.6 9.47 21.5 9.33 21.44 9.17C21.37 9.01 21.33 8.84 21.33 8.66C21.33 8.49 21.37 8.32 21.44 8.16C21.5 7.98 21.6 7.85 21.72 7.71C22.02 7.41 22.49 7.26 22.92 7.36C23.01 7.37 23.09 7.4 23.17 7.44C23.25 7.46 23.33 7.5 23.41 7.56C23.48 7.6 23.54 7.66 23.61 7.71C23.73 7.85 23.82 7.98 23.89 8.16C23.96 8.32 24 8.49 24 8.66C24 8.84 23.96 9.01 23.89 9.17Z" fill="#7562E0" fill-opacity="1.000000" fill-rule="nonzero"/>
	<g opacity="0.000000"/>
</svg>
