<svg width="24.000000" height="24.000000" viewBox="0 0 24 24" fill="none" xmlns="http://www.w3.org/2000/svg" xmlns:xlink="http://www.w3.org/1999/xlink">
	<desc>
			Created with Pixso.
	</desc>
	<defs/>
	<rect id="vuesax/bold/user" rx="0.000000" width="23.000000" height="23.000000" transform="translate(0.500000 0.500000)" fill="#FFFFFF" fill-opacity="0"/>
	<g opacity="0.000000">
		<path id="Vector" d="M2 2L22 2L22 22L2 22L2 2Z" fill="#FFFFFF" fill-opacity="1.000000" fill-rule="evenodd"/>
	</g>
	<path id="Vector" d="M16.16 7.83C16.16 10.13 14.3 12 12 12C9.69 12 7.83 10.13 7.83 7.83C7.83 5.53 9.69 3.66 12 3.66C14.3 3.66 16.16 5.53 16.16 7.83Z" fill="#FFFFFF" fill-opacity="1.000000" fill-rule="evenodd"/>
	<path id="Vector" d="M12 14.08C7.82 14.08 4.42 16.88 4.42 20.33C4.42 20.56 4.6 20.75 4.84 20.75L19.15 20.75C19.39 20.75 19.57 20.56 19.57 20.33C19.57 16.88 16.17 14.08 12 14.08Z" fill="#FFFFFF" fill-opacity="1.000000" fill-rule="nonzero"/>
</svg>
