<svg width="20.000000" height="20.000000" viewBox="0 0 20 20" fill="none" xmlns="http://www.w3.org/2000/svg" xmlns:xlink="http://www.w3.org/1999/xlink">
	<desc>
			Created with Pixso.
	</desc>
	<defs/>
	<rect id="vuesax/bold/eye" rx="0.000000" width="19.000000" height="19.000000" transform="translate(0.500000 0.500000)" fill="#FFFFFF" fill-opacity="0"/>
	<path id="Vector" d="M17.7 7.62C15.78 4.6 12.96 2.85 10 2.85C8.51 2.85 7.07 3.29 5.75 4.1C4.44 4.91 3.25 6.1 2.29 7.62C1.45 8.93 1.45 11.05 2.29 12.36C4.21 15.4 7.03 17.13 10 17.13C11.48 17.13 12.92 16.7 14.24 15.89C15.55 15.07 16.74 13.88 17.7 12.36C18.54 11.06 18.54 8.93 17.7 7.62ZM10 13.36C8.13 13.36 6.63 11.85 6.63 10C6.63 8.14 8.13 6.63 10 6.63C11.86 6.63 13.36 8.14 13.36 10C13.36 11.85 11.86 13.36 10 13.36Z" fill="#FFFFFF" fill-opacity="1.000000" fill-rule="nonzero"/>
	<path id="Vector" d="M10 7.61C8.69 7.61 7.62 8.68 7.62 9.99C7.62 11.3 8.69 12.37 10 12.37C11.3 12.37 12.38 11.3 12.38 9.99C12.38 8.69 11.3 7.61 10 7.61Z" fill="#FFFFFF" fill-opacity="1.000000" fill-rule="nonzero"/>
	<g opacity="0.000000"/>
</svg>
