<svg width="32.000000" height="32.000000" viewBox="0 0 32 32" fill="none" xmlns="http://www.w3.org/2000/svg" xmlns:xlink="http://www.w3.org/1999/xlink">
	<desc>
			Created with Pixso.
	</desc>
	<defs/>
	<rect id="vuesax/bold/dribbble" rx="0.000000" width="31.000000" height="31.000000" transform="translate(0.500000 0.500000)" fill="#FFFFFF" fill-opacity="0"/>
	<g opacity="0.580000"/>
	<path id="Vector" d="" fill="#7562E0" fill-opacity="1.000000" fill-rule="nonzero"/>
	<path id="Vector" d="M21.17 27.89C21.21 28.1 21.09 28.33 20.89 28.41C19.38 29.01 17.73 29.33 16.02 29.33C13.08 29.33 10.35 28.38 8.15 26.76C7.97 26.62 7.91 26.35 8.03 26.15C8.77 24.85 11.63 20.65 17.97 18.3C18.21 18.21 18.47 18.33 18.55 18.57C20.14 22.82 20.89 26.42 21.17 27.89Z" fill="#7562E0" fill-opacity="1.000000" fill-rule="evenodd"/>
	<path id="Vector" d="M29.09 18.52C28.48 21.8 26.64 24.65 24.06 26.6C23.78 26.81 23.38 26.65 23.32 26.32C23.04 24.87 22.36 21.77 21.05 18.08C20.96 17.79 21.14 17.49 21.44 17.45C24.76 17.05 27.66 17.69 28.76 17.98C28.98 18.06 29.13 18.29 29.09 18.52Z" fill="#7562E0" fill-opacity="1.000000" fill-rule="evenodd"/>
	<path id="Vector" d="M28.78 15.76C27.42 15.52 23.96 15.01 20.41 15.39C20.2 15.42 20.01 15.3 19.92 15.1C19.86 14.98 19.82 14.86 19.77 14.74C19.56 14.25 19.33 13.74 19.1 13.25C18.98 13.01 19.1 12.72 19.34 12.61C23.08 11 25.16 8.91 25.97 7.98C26.17 7.76 26.52 7.77 26.7 8.01C28.24 10.05 29.18 12.54 29.33 15.24C29.34 15.57 29.08 15.81 28.78 15.76Z" fill="#7562E0" fill-opacity="1.000000" fill-rule="evenodd"/>
	<path id="Vector" d="M24.58 6.38C23.89 7.22 21.94 9.22 18.25 10.69C18.04 10.78 17.78 10.69 17.66 10.48C15.96 7.38 14.14 4.78 13.3 3.61C13.1 3.33 13.26 2.93 13.6 2.87C14.37 2.74 15.18 2.67 16.01 2.67C19.24 2.67 22.21 3.82 24.52 5.74C24.72 5.89 24.74 6.18 24.58 6.38Z" fill="#7562E0" fill-opacity="1.000000" fill-rule="evenodd"/>
	<path id="Vector" d="M14.69 11.78C9.64 13.05 5.17 13.22 3.54 13.25C3.23 13.25 3.01 12.96 3.09 12.66C4.05 8.93 6.61 5.81 9.98 4.09C10.18 3.98 10.44 4.05 10.57 4.23C11.26 5.19 13.14 7.9 14.98 11.09C15.13 11.36 15 11.7 14.69 11.78Z" fill="#7562E0" fill-opacity="1.000000" fill-rule="evenodd"/>
	<path id="Vector" d="M17.22 15.46C17.34 15.72 17.2 16.02 16.93 16.11C11.02 18.02 7.49 22.76 6.42 24.38C6.25 24.65 5.88 24.66 5.67 24.42C3.81 22.13 2.67 19.5 2.67 16.32L2.67 16.08C2.67 15.81 2.89 15.59 3.15 15.61C4.83 15.67 10.32 15.45 16.01 13.81C16.22 13.74 16.46 13.85 16.56 14.05C16.78 14.52 17.01 14.98 17.22 15.46Z" fill="#7562E0" fill-opacity="1.000000" fill-rule="evenodd"/>
	<g opacity="0.000000"/>
</svg>
