<svg width="54.000000" height="54.000000" viewBox="0 0 54 54" fill="none" xmlns="http://www.w3.org/2000/svg" xmlns:xlink="http://www.w3.org/1999/xlink">
	<desc>
			Created with Pixso.
	</desc>
	<defs/>
	<rect id="vuesax/javascript" rx="0.000000" width="53.000000" height="53.000000" transform="translate(0.500000 0.500000)" fill="#FFFFFF" fill-opacity="0"/>
	<path id="Vector" d="M23.89 15.77L23.89 35.97L16.87 33.95" stroke="#FFFFFF" stroke-opacity="1.000000" stroke-width="3.000000" stroke-linejoin="round" stroke-linecap="round"/>
	<path id="Vector" d="M37.12 15.75L30.03 16.76L30.03 27.9L37.12 26.88L37.12 33.97L29.02 36" stroke="#FFFFFF" stroke-opacity="1.000000" stroke-width="3.000000" stroke-linejoin="round" stroke-linecap="round"/>
	<path id="Vector" d="M7.47 11.04L7.02 6.99C6.86 5.67 7.92 4.5 9.24 4.5L44.73 4.5C46.08 4.5 47.11 5.67 46.95 6.99L42.9 43.49C42.81 44.39 42.16 45.15 41.28 45.4L27.6 49.31C27.2 49.43 26.77 49.43 26.37 49.31L12.69 45.4C11.81 45.15 11.18 44.39 11.07 43.49L8.59 21.17" stroke="#FFFFFF" stroke-opacity="1.000000" stroke-width="3.000000" stroke-linejoin="round" stroke-linecap="round"/>
</svg>
